; NON-PLATED HOLES START AT T1
; THROUGH (PLATED) HOLES START AT T100
M48
INCH
T1C0.086614
T100C0.035000
T101C0.040000
T102C0.038000
%
T1
X037762Y030390
X001003Y030435
X001093Y001073
X037762Y001118
T100
X022397Y013858
X022397Y016858
X026397Y016858
X026397Y013858
X014209Y028999
X036280Y018382
X023397Y013858
X025397Y016858
X011821Y029044
X024397Y013858
X028043Y004082
X026258Y008041
X006128Y025434
X028397Y013858
X023397Y016858
X006128Y026434
X026258Y004041
X027397Y013858
X010437Y025410
X035280Y018382
X027397Y016858
X032956Y020869
X028043Y008082
X028397Y016858
X014209Y024999
X025397Y013858
X024397Y016858
X011821Y025044
X010437Y029410
X033956Y020869
T101
X006482Y001636
X006482Y002636
T102
X002841Y025433
X002841Y024433
X008537Y017440
X032413Y012284
X018371Y010401
X022748Y025320
X024059Y001631
X003044Y022458
X005044Y022458
X002815Y028172
X020772Y007749
X032056Y016253
X018371Y015401
X021728Y022073
X032413Y007284
X026071Y024263
X018371Y018401
X008537Y016440
X026071Y025263
X008537Y022440
X008537Y011440
X002053Y006457
X023728Y022073
X018371Y011401
X018371Y017401
X036316Y024173
X028834Y021071
X021320Y005442
X018371Y027401
X027264Y010430
X008537Y021440
X032413Y006284
X030834Y021071
X008537Y028440
X018371Y028401
X002815Y027172
X036257Y028752
X008537Y013440
X019772Y007749
X020748Y025320
X035307Y010289
X032413Y003284
X036316Y025173
X022772Y007749
X021320Y003442
X026071Y028769
X002044Y022458
X005053Y006457
X021772Y007749
X018371Y022401
X020728Y022073
X023748Y025320
X033056Y016253
X035255Y006290
X008537Y025440
X021320Y004442
X028264Y010430
X018371Y024401
X035221Y003278
X035221Y004278
X003053Y006457
X018371Y021401
X021748Y025320
X008537Y015440
X018371Y012401
X008537Y012440
X022728Y022073
X032413Y008284
X018371Y019401
X034056Y016253
X029834Y021071
X032413Y005284
X036257Y029752
X008537Y026440
X035255Y007290
X004053Y006457
X018371Y013401
X018371Y025401
X032413Y010284
X035307Y009289
X024059Y002631
X026264Y010430
X032413Y004284
X008537Y014440
X018371Y026401
X032413Y013284
X018371Y014401
X008537Y020440
X008537Y027440
X008537Y019440
X008537Y024440
X032413Y011284
X008537Y010440
X018371Y016401
X004044Y022458
X026071Y029769
X018371Y020401
X018371Y023401
X032413Y009284
X008537Y023440
X008537Y018440
X018772Y007749
T00
M30
