; NON-PLATED HOLES START AT T1
; THROUGH (PLATED) HOLES START AT T100
M48
INCH
T1C0.086614
T100C0.040000
T101C0.038000
T102C0.035000
%
T1
X037762Y001118
X001003Y030435
X001093Y001073
X037762Y030390
T100
X006482Y002636
X006482Y001636
T101
X032056Y016253
X018371Y012401
X022772Y007749
X018371Y021401
X033056Y016253
X018371Y015401
X018371Y025401
X035255Y006290
X022748Y025320
X032413Y005284
X026020Y011614
X026071Y028769
X018371Y011401
X002053Y006457
X008537Y012440
X032413Y012284
X008537Y017440
X023728Y022073
X018772Y007749
X018371Y016401
X027020Y011614
X023748Y025320
X003044Y022458
X026071Y025263
X019772Y007749
X027867Y008922
X022728Y022073
X018371Y028401
X008537Y018440
X008537Y011440
X035307Y010289
X032413Y009284
X032413Y006284
X036316Y025173
X005044Y022458
X018371Y022401
X035221Y003278
X018371Y023401
X008537Y010440
X002815Y027172
X034056Y016253
X008537Y028440
X030834Y021071
X008537Y014440
X027867Y007922
X032413Y011284
X008537Y026440
X008537Y027440
X008537Y013440
X020728Y022073
X004044Y022458
X032413Y010284
X018371Y014401
X021748Y025320
X032413Y007284
X029834Y021071
X018371Y019401
X026071Y024263
X018371Y017401
X021728Y022073
X019823Y004227
X026071Y029769
X018371Y024401
X008537Y015440
X024059Y001631
X028020Y011614
X018371Y026401
X020823Y004227
X008537Y023440
X008537Y021440
X018371Y018401
X008537Y016440
X020748Y025320
X018823Y004227
X004053Y006457
X035255Y007290
X032413Y004284
X036316Y024173
X008537Y025440
X032413Y003284
X002841Y025433
X018371Y010401
X002815Y028172
X018371Y020401
X005053Y006457
X035221Y004278
X028834Y021071
X018371Y027401
X036257Y029752
X036257Y028752
X027867Y006922
X003053Y006457
X032413Y008284
X024059Y002631
X002841Y024433
X021772Y007749
X020772Y007749
X008537Y020440
X008537Y019440
X018371Y013401
X002044Y022458
X008537Y024440
X008537Y022440
X032413Y013284
X035307Y009289
T102
X025586Y006130
X026397Y013858
X024397Y016858
X028397Y016858
X025397Y013858
X029675Y004971
X010437Y025410
X022397Y013858
X036280Y018382
X028397Y013858
X014209Y028999
X014209Y024999
X025608Y003792
X025675Y004971
X033956Y020869
X025586Y010130
X032956Y020869
X011821Y025044
X029608Y003792
X027397Y013858
X023397Y013858
X026397Y016858
X006128Y025434
X035280Y018382
X027397Y016858
X024397Y013858
X023397Y016858
X011821Y029044
X006128Y026434
X022397Y016858
X010437Y029410
X025397Y016858
T00
M30
