G04 MADE WITH FRITZING*
G04 WWW.FRITZING.ORG*
G04 DOUBLE SIDED*
G04 HOLES PLATED*
G04 CONTOUR ON CENTER OF CONTOUR VECTOR*
%ASAXBY*%
%FSLAX23Y23*%
%MOIN*%
%OFA0B0*%
%SFA1.0B1.0*%
%ADD10C,0.088000*%
%ADD11C,0.085000*%
%ADD12C,0.049370*%
%ADD13R,0.088000X0.088000*%
%ADD14R,0.085000X0.085000*%
%LNMASK0*%
G90*
G70*
G54D10*
X1159Y713D03*
X1059Y713D03*
X959Y713D03*
X859Y713D03*
X264Y2650D03*
X264Y2550D03*
X3474Y1711D03*
X3374Y1711D03*
X3274Y1711D03*
X3174Y1711D03*
G54D11*
X670Y2756D03*
X670Y2856D03*
G54D10*
X1165Y2314D03*
X1065Y2314D03*
X965Y2314D03*
X865Y2314D03*
X573Y714D03*
X473Y714D03*
X373Y714D03*
X273Y714D03*
X572Y2313D03*
X472Y2313D03*
X372Y2313D03*
X272Y2313D03*
X2902Y2956D03*
X2902Y2856D03*
X2902Y2756D03*
X2902Y2656D03*
X2902Y2556D03*
X2902Y2456D03*
X2902Y2356D03*
X2902Y2256D03*
X2902Y2156D03*
X2902Y2056D03*
X2902Y1956D03*
X3688Y2958D03*
X3688Y2858D03*
X3688Y2758D03*
X3688Y2658D03*
X3688Y2558D03*
X3688Y2458D03*
X3688Y2358D03*
X3688Y2258D03*
X3688Y2158D03*
X3688Y2058D03*
X3688Y1958D03*
X3988Y1452D03*
X4088Y1452D03*
X4188Y1452D03*
X4288Y1452D03*
X3488Y352D03*
X3488Y452D03*
X3488Y552D03*
X3488Y652D03*
X3488Y752D03*
X3488Y852D03*
X2688Y352D03*
X2688Y452D03*
X2688Y552D03*
X2688Y652D03*
X2688Y752D03*
X2688Y852D03*
X2410Y899D03*
X2410Y999D03*
X2410Y1099D03*
X2410Y1199D03*
X2410Y1299D03*
X2410Y1399D03*
X2410Y1499D03*
X2410Y1599D03*
X2410Y1699D03*
X2410Y1799D03*
X2410Y1899D03*
X2410Y1999D03*
X2410Y2099D03*
X2410Y2199D03*
X2410Y2299D03*
X2410Y2399D03*
X2410Y2499D03*
X2410Y2599D03*
X2410Y2699D03*
X1426Y899D03*
X1426Y999D03*
X1426Y1099D03*
X1426Y1199D03*
X1426Y1299D03*
X1426Y1399D03*
X1426Y1499D03*
X1426Y1599D03*
X1426Y1699D03*
X1426Y1799D03*
X1426Y1899D03*
X1426Y1999D03*
X1426Y2099D03*
X1426Y2199D03*
X1426Y2299D03*
X1426Y2399D03*
X1426Y2499D03*
X1426Y2599D03*
X1426Y2699D03*
G54D11*
X765Y2945D03*
X1165Y2945D03*
X1677Y2554D03*
X1677Y2954D03*
X1281Y2542D03*
X1281Y2942D03*
G54D10*
X2679Y2255D03*
X2679Y2155D03*
X4474Y1663D03*
X4474Y1763D03*
X1564Y583D03*
X1664Y583D03*
X2593Y2995D03*
X2593Y2895D03*
X2185Y248D03*
X2285Y248D03*
X1160Y374D03*
X1260Y374D03*
X264Y2864D03*
X264Y2964D03*
X2520Y585D03*
X2420Y585D03*
X2320Y585D03*
X2220Y585D03*
X2120Y585D03*
X3988Y1951D03*
X3888Y1951D03*
X4347Y1958D03*
X4447Y1958D03*
X3998Y2979D03*
X3898Y2979D03*
X4349Y2977D03*
X4449Y2977D03*
G54D12*
X2589Y1538D03*
G54D13*
X3474Y1711D03*
G54D14*
X670Y2756D03*
G54D13*
X2520Y585D03*
G04 End of Mask0*
M02*