G04 MADE WITH FRITZING*
G04 WWW.FRITZING.ORG*
G04 DOUBLE SIDED*
G04 HOLES PLATED*
G04 CONTOUR ON CENTER OF CONTOUR VECTOR*
%ASAXBY*%
%FSLAX23Y23*%
%MOIN*%
%OFA0B0*%
%SFA1.0B1.0*%
%ADD10C,0.049370*%
%ADD11C,0.088000*%
%ADD12C,0.085000*%
%ADD13C,0.096614*%
%ADD14C,0.088740*%
%ADD15R,0.088000X0.088000*%
%ADD16R,0.085000X0.085000*%
%LNMASK0*%
G90*
G70*
G54D10*
X1602Y2331D03*
G54D11*
X1148Y658D03*
X1048Y658D03*
X948Y658D03*
X848Y658D03*
X254Y2595D03*
X254Y2495D03*
X3464Y1677D03*
X3364Y1677D03*
X3264Y1677D03*
X3164Y1677D03*
G54D12*
X659Y2701D03*
X659Y2801D03*
G54D11*
X1155Y2259D03*
X1055Y2259D03*
X955Y2259D03*
X855Y2259D03*
X562Y660D03*
X462Y660D03*
X362Y660D03*
X262Y660D03*
X562Y2258D03*
X462Y2258D03*
X362Y2258D03*
X262Y2258D03*
X2891Y2901D03*
X2891Y2801D03*
X2891Y2701D03*
X2891Y2601D03*
X2891Y2501D03*
X2891Y2401D03*
X2891Y2301D03*
X2891Y2201D03*
X2891Y2101D03*
X2891Y2001D03*
X2891Y1901D03*
X3677Y2903D03*
X3677Y2803D03*
X3677Y2703D03*
X3677Y2603D03*
X3677Y2503D03*
X3677Y2403D03*
X3677Y2303D03*
X3677Y2203D03*
X3677Y2103D03*
X3677Y2003D03*
X3677Y1903D03*
X3977Y1437D03*
X4077Y1437D03*
X4177Y1437D03*
X4277Y1437D03*
X3496Y245D03*
X3496Y345D03*
X3496Y445D03*
X3496Y545D03*
X3496Y645D03*
X3496Y745D03*
X2697Y245D03*
X2697Y345D03*
X2697Y445D03*
X2697Y545D03*
X2697Y645D03*
X2697Y745D03*
X1411Y844D03*
X1411Y944D03*
X1411Y1044D03*
X1411Y1144D03*
X1411Y1244D03*
X1411Y1344D03*
X1411Y1444D03*
X1411Y1544D03*
X1411Y1644D03*
X1411Y1744D03*
X1411Y1844D03*
X1411Y1944D03*
X1411Y2044D03*
X1411Y2144D03*
X1411Y2244D03*
X1411Y2344D03*
X1411Y2444D03*
X1411Y2544D03*
X1411Y2644D03*
X2400Y844D03*
X2400Y944D03*
X2400Y1044D03*
X2400Y1144D03*
X2400Y1244D03*
X2400Y1344D03*
X2400Y1444D03*
X2400Y1544D03*
X2400Y1644D03*
X2400Y1744D03*
X2400Y1844D03*
X2400Y1944D03*
X2400Y2044D03*
X2400Y2144D03*
X2400Y2244D03*
X2400Y2344D03*
X2400Y2444D03*
X2400Y2544D03*
X2400Y2644D03*
G54D12*
X755Y2895D03*
X1155Y2895D03*
X1582Y2503D03*
X1582Y2903D03*
X1686Y1217D03*
X1686Y817D03*
X1724Y2504D03*
X1724Y2904D03*
X1260Y2495D03*
X1260Y2895D03*
G54D11*
X2668Y2200D03*
X2668Y2100D03*
X4463Y1608D03*
X4463Y1708D03*
X2583Y2940D03*
X2583Y2840D03*
X1551Y541D03*
X1651Y541D03*
X2175Y194D03*
X2275Y194D03*
X1149Y319D03*
X1249Y319D03*
X254Y2810D03*
X254Y2910D03*
X3977Y1896D03*
X3877Y1896D03*
X4337Y1903D03*
X4437Y1903D03*
X3988Y2924D03*
X3888Y2924D03*
X4339Y2922D03*
X4439Y2922D03*
X3151Y1159D03*
X3051Y1159D03*
X2951Y1159D03*
X2851Y1159D03*
X2751Y1159D03*
G54D10*
X2641Y1373D03*
X3226Y906D03*
G54D13*
X4599Y124D03*
X124Y3025D03*
X4600Y3027D03*
G54D14*
X119Y121D03*
G54D15*
X3464Y1677D03*
G54D16*
X659Y2701D03*
G54D15*
X3151Y1159D03*
G04 End of Mask0*
M02*