; NON-PLATED HOLES START AT T1
; THROUGH (PLATED) HOLES START AT T100
M48
INCH
T1C0.086614
T2C0.078740
T100C0.035000
T101C0.015748
T102C0.038000
%
T1
X040287Y030265
X040283Y001243
X001185Y030253
T2
X001136Y001210
T100
X006893Y025006
X011154Y012171
X004954Y026446
X010110Y025006
X006893Y029006
X002912Y029972
X011533Y025006
X011533Y029006
X010110Y029006
X004954Y027446
X011154Y008171
X006912Y029972
T101
X020704Y013729
X026548Y009058
X010353Y023382
T102
X018285Y014439
X023204Y022011
X018285Y009439
X002377Y024497
X018285Y024439
X008400Y017437
X021260Y004452
X021260Y002452
X016039Y001935
X008400Y019437
X029245Y006452
X023804Y011587
X018285Y023439
X008400Y025437
X029245Y002452
X034064Y014368
X031064Y025028
X008400Y010437
X008400Y026437
X038660Y019028
X020115Y029402
X023204Y025011
X008400Y024437
X008400Y022437
X031064Y024028
X018285Y011439
X002377Y025497
X031064Y020028
X018285Y016439
X031064Y022028
X008400Y009437
X018285Y013439
X018285Y017439
X031064Y029028
X004839Y022586
X028928Y016766
X029245Y005452
X023204Y020011
X034169Y029237
X023204Y028011
X005845Y006596
X038922Y017083
X008400Y012437
X031064Y028028
X018285Y025439
X008400Y016437
X005839Y022586
X033169Y029237
X003839Y022586
X008400Y021437
X008400Y018437
X029245Y004452
X020971Y022003
X027928Y016766
X035064Y014368
X037677Y029220
X037660Y019028
X026928Y016766
X010796Y005413
X025928Y016766
X031064Y027028
X029245Y003452
X023204Y024011
X017039Y001935
X018285Y012439
X004845Y006596
X018285Y026439
X005868Y003204
X022804Y011587
X021260Y003452
X031064Y019028
X018285Y018439
X025804Y011587
X008400Y014437
X008400Y020437
X009796Y005413
X020971Y021003
X023204Y019011
X006868Y003204
X008400Y015437
X023204Y021011
X002845Y006596
X008400Y008437
X031064Y023028
X024804Y011587
X018285Y022439
X021260Y005452
X018285Y019439
X020115Y028402
X018285Y015439
X008400Y023437
X018285Y010439
X002360Y027636
X031064Y026028
X023204Y026011
X021804Y011587
X029245Y007452
X003845Y006596
X038677Y029220
X023204Y023011
X033063Y018958
X008400Y013437
X034063Y018958
X002839Y022586
X002360Y028636
X018285Y008439
X018285Y020439
X037064Y014368
X018285Y021439
X023204Y027011
X021260Y006452
X031064Y021028
X023204Y029011
X008400Y011437
X038922Y016083
X021260Y007452
X036064Y014368
T00
M30
