; NON-PLATED HOLES START AT T1
; THROUGH (PLATED) HOLES START AT T100
M48
INCH
T1C0.086614
T2C0.078740
T100C0.035000
T101C0.038000
T102C0.015748
%
T1
X045997Y030265
X001242Y030253
X045993Y001243
T2
X001193Y001210
T100
X017243Y029035
X012603Y024951
X016864Y008171
X011551Y028954
X007551Y028954
X016864Y012171
X006592Y028008
X006592Y027008
X015820Y029033
X015820Y025033
X012603Y028951
X017243Y025035
T101
X014110Y018437
X003618Y022584
X010549Y022586
X044387Y029220
X002536Y024954
X036774Y027028
X023995Y020439
X004618Y022584
X028914Y019011
X005618Y022584
X010484Y006578
X014110Y011437
X036774Y026028
X002536Y025954
X028914Y025011
X023995Y012439
X008484Y006578
X044632Y017083
X026970Y002452
X041774Y014368
X028914Y027011
X014110Y019437
X028514Y011587
X038879Y029237
X014110Y021437
X009549Y022586
X014110Y009437
X026970Y006452
X028914Y023011
X023995Y010439
X023995Y017439
X034955Y004452
X026970Y005452
X011484Y006578
X039879Y029237
X036774Y025028
X014110Y010437
X028914Y022011
X014110Y017437
X031514Y011587
X030514Y011587
X023995Y014439
X002622Y006595
X014110Y013437
X028914Y024011
X036774Y020029
X034638Y016766
X044370Y019029
X036774Y021029
X015506Y005413
X025825Y028402
X028914Y020011
X023995Y024439
X043387Y029220
X034955Y005452
X028914Y028011
X014110Y022437
X043370Y019029
X026681Y022003
X002536Y029095
X036774Y028028
X038773Y018958
X023995Y009439
X021749Y001935
X023995Y021439
X029514Y011587
X005622Y006595
X023995Y008439
X002536Y028095
X014110Y014437
X036774Y022028
X044632Y016083
X034955Y006452
X039773Y018958
X023995Y026439
X036774Y023028
X022749Y001935
X014110Y015437
X023995Y022439
X028914Y029011
X011491Y003192
X014110Y008437
X014110Y025437
X028914Y026011
X026970Y007452
X032638Y016766
X034955Y007452
X023995Y023439
X002618Y022584
X034955Y003452
X039774Y014368
X036774Y019029
X026681Y021004
X014110Y024437
X036774Y024028
X026970Y004452
X014110Y020437
X028914Y021011
X023995Y025439
X036774Y029028
X040774Y014368
X027514Y011587
X033638Y016766
X042774Y014368
X034955Y002452
X008549Y022586
X031638Y016766
X014110Y016437
X023995Y015439
X025825Y029402
X016506Y005413
X023995Y011439
X023995Y013439
X023995Y019439
X014110Y023437
X012491Y003192
X023995Y018439
X014110Y012437
X023995Y016439
X014110Y026437
X003622Y006595
X004622Y006595
X009484Y006578
X011549Y022586
X026970Y003452
T102
X032258Y009058
X026414Y013729
X016023Y023308
T00
M30
