; NON-PLATED HOLES START AT T1
; THROUGH (PLATED) HOLES START AT T100
M48
INCH
T100C0.015748
T101C0.035000
T102C0.038000
%
T100
X025889Y015380
T101
X016766Y025535
X012806Y025416
X006696Y028557
X012806Y029416
X016766Y029535
X011645Y029445
X006696Y027557
X007645Y029445
T102
X026878Y008524
X023198Y005854
X036878Y028577
X029018Y026559
X025198Y005854
X014255Y021990
X002640Y025503
X024099Y022987
X025929Y029951
X034878Y006524
X040878Y014524
X016636Y005827
X029018Y019559
X024099Y008987
X036878Y029577
X029018Y021559
X029018Y029559
X024099Y021987
X036878Y025577
X036878Y021577
X002640Y026503
X011653Y023135
X015637Y005827
X039878Y014524
X026785Y021552
X029018Y020559
X010653Y023135
X034878Y003524
X038877Y019507
X026878Y006524
X021853Y002483
X032742Y017106
X042878Y014524
X034742Y017106
X009588Y007127
X026785Y022552
X036878Y026577
X024099Y017987
X024099Y011987
X036878Y022577
X004722Y023133
X024099Y023987
X002640Y029643
X011595Y003740
X026878Y004524
X026878Y003524
X014255Y010990
X024099Y009987
X002722Y023133
X014255Y023990
X011588Y007127
X008653Y023135
X029018Y023559
X043474Y019577
X029018Y024559
X008588Y007127
X024099Y013987
X034878Y007524
X043491Y029768
X029018Y027559
X036878Y020577
X024099Y016987
X014255Y026990
X034878Y008524
X014255Y009990
X034878Y004524
X039877Y019507
X014255Y008990
X022853Y002483
X005726Y007144
X024099Y012987
X004726Y007144
X010588Y007127
X014255Y016990
X024099Y025987
X014255Y012990
X002726Y007144
X044736Y016632
X014255Y020990
X036878Y024577
X044491Y029768
X014255Y015990
X014255Y013990
X014255Y019990
X026878Y005524
X014255Y014990
X024099Y014987
X014255Y024990
X024099Y010987
X014255Y018990
X038983Y029786
X026878Y007524
X003722Y023133
X044736Y017632
X024099Y024987
X024099Y019987
X005722Y023133
X022198Y005854
X036878Y019577
X014255Y011990
X024099Y026987
X021198Y005854
X014255Y025990
X003726Y007144
X036878Y023577
X009653Y023135
X041878Y014524
X012595Y003740
X029018Y028559
X014255Y022990
X033742Y017106
X025929Y028951
X024099Y020987
X036878Y027577
X014255Y017990
X024099Y018987
X044474Y019577
X034878Y005524
X024198Y005854
X029018Y022559
X002640Y028643
X039983Y029786
X031742Y017106
X029018Y025559
X024099Y015987
T00
M30
