G04 MADE WITH FRITZING*
G04 WWW.FRITZING.ORG*
G04 DOUBLE SIDED*
G04 HOLES PLATED*
G04 CONTOUR ON CENTER OF CONTOUR VECTOR*
%ASAXBY*%
%FSLAX23Y23*%
%MOIN*%
%OFA0B0*%
%SFA1.0B1.0*%
%ADD10C,0.078000*%
%ADD11C,0.075000*%
%ADD12C,0.039370*%
%ADD13R,0.078000X0.078000*%
%ADD14R,0.075000X0.075000*%
%ADD15C,0.024000*%
%LNCOPPER0*%
G90*
G70*
G54D10*
X1159Y713D03*
X1059Y713D03*
X959Y713D03*
X859Y713D03*
X264Y2650D03*
X264Y2550D03*
X3474Y1711D03*
X3374Y1711D03*
X3274Y1711D03*
X3174Y1711D03*
G54D11*
X670Y2756D03*
X670Y2856D03*
G54D10*
X1165Y2314D03*
X1065Y2314D03*
X965Y2314D03*
X865Y2314D03*
X573Y714D03*
X473Y714D03*
X373Y714D03*
X273Y714D03*
X572Y2313D03*
X472Y2313D03*
X372Y2313D03*
X272Y2313D03*
X2902Y2956D03*
X2902Y2856D03*
X2902Y2756D03*
X2902Y2656D03*
X2902Y2556D03*
X2902Y2456D03*
X2902Y2356D03*
X2902Y2256D03*
X2902Y2156D03*
X2902Y2056D03*
X2902Y1956D03*
X3688Y2958D03*
X3688Y2858D03*
X3688Y2758D03*
X3688Y2658D03*
X3688Y2558D03*
X3688Y2458D03*
X3688Y2358D03*
X3688Y2258D03*
X3688Y2158D03*
X3688Y2058D03*
X3688Y1958D03*
X3988Y1452D03*
X4088Y1452D03*
X4188Y1452D03*
X4288Y1452D03*
X3488Y352D03*
X3488Y452D03*
X3488Y552D03*
X3488Y652D03*
X3488Y752D03*
X3488Y852D03*
X2688Y352D03*
X2688Y452D03*
X2688Y552D03*
X2688Y652D03*
X2688Y752D03*
X2688Y852D03*
X2410Y899D03*
X2410Y999D03*
X2410Y1099D03*
X2410Y1199D03*
X2410Y1299D03*
X2410Y1399D03*
X2410Y1499D03*
X2410Y1599D03*
X2410Y1699D03*
X2410Y1799D03*
X2410Y1899D03*
X2410Y1999D03*
X2410Y2099D03*
X2410Y2199D03*
X2410Y2299D03*
X2410Y2399D03*
X2410Y2499D03*
X2410Y2599D03*
X2410Y2699D03*
X1426Y899D03*
X1426Y999D03*
X1426Y1099D03*
X1426Y1199D03*
X1426Y1299D03*
X1426Y1399D03*
X1426Y1499D03*
X1426Y1599D03*
X1426Y1699D03*
X1426Y1799D03*
X1426Y1899D03*
X1426Y1999D03*
X1426Y2099D03*
X1426Y2199D03*
X1426Y2299D03*
X1426Y2399D03*
X1426Y2499D03*
X1426Y2599D03*
X1426Y2699D03*
G54D11*
X765Y2945D03*
X1165Y2945D03*
X1677Y2554D03*
X1677Y2954D03*
X1281Y2542D03*
X1281Y2942D03*
G54D10*
X2679Y2255D03*
X2679Y2155D03*
X4474Y1663D03*
X4474Y1763D03*
X1564Y583D03*
X1664Y583D03*
X2593Y2995D03*
X2593Y2895D03*
X2185Y248D03*
X2285Y248D03*
X1160Y374D03*
X1260Y374D03*
X264Y2864D03*
X264Y2964D03*
X2520Y585D03*
X2420Y585D03*
X2320Y585D03*
X2220Y585D03*
X2120Y585D03*
X3988Y1951D03*
X3888Y1951D03*
X4347Y1958D03*
X4447Y1958D03*
X3998Y2979D03*
X3898Y2979D03*
X4349Y2977D03*
X4449Y2977D03*
G54D12*
X2589Y1538D03*
G54D13*
X3474Y1711D03*
G54D14*
X670Y2756D03*
G54D13*
X2520Y585D03*
G54D15*
X2698Y2255D02*
X2883Y2256D01*
D02*
X2698Y2155D02*
X2883Y2156D01*
D02*
X1223Y2000D02*
X1068Y2157D01*
D02*
X1068Y2157D02*
X1066Y2295D01*
D02*
X1407Y1999D02*
X1223Y2000D01*
D02*
X2419Y604D02*
X2418Y673D01*
D02*
X2418Y673D02*
X2274Y814D01*
D02*
X2273Y1535D02*
X2330Y1599D01*
D02*
X2274Y814D02*
X2273Y1535D01*
D02*
X2330Y1599D02*
X2391Y1599D01*
D02*
X3469Y852D02*
X3134Y850D01*
D02*
X2481Y1497D02*
X2429Y1498D01*
D02*
X3134Y850D02*
X2481Y1497D01*
D02*
X1407Y2099D02*
X1335Y2099D01*
D02*
X1335Y2099D02*
X1285Y2149D01*
D02*
X1285Y2149D02*
X1283Y2297D01*
D02*
X898Y2421D02*
X864Y2385D01*
D02*
X1156Y2418D02*
X898Y2421D01*
D02*
X1283Y2297D02*
X1156Y2418D01*
D02*
X864Y2385D02*
X865Y2333D01*
D02*
X3707Y2658D02*
X3804Y2659D01*
D02*
X3804Y2659D02*
X4074Y2394D01*
D02*
X4074Y2394D02*
X4088Y1471D01*
D02*
X282Y2959D02*
X653Y2860D01*
D02*
X4188Y1471D02*
X4186Y2406D01*
D02*
X4186Y2406D02*
X3826Y2756D01*
D02*
X3826Y2756D02*
X3707Y2757D01*
D02*
X1407Y1599D02*
X1269Y1599D01*
D02*
X1269Y1599D02*
X586Y2300D01*
D02*
X1537Y2400D02*
X1661Y2280D01*
D02*
X1445Y2399D02*
X1537Y2400D01*
D02*
X1662Y767D02*
X1566Y676D01*
D02*
X1566Y676D02*
X1564Y602D01*
D02*
X1661Y2280D02*
X1662Y767D01*
D02*
X391Y2313D02*
X453Y2313D01*
D02*
X1445Y1699D02*
X1516Y1700D01*
D02*
X1569Y1647D02*
X1570Y872D01*
D02*
X1516Y1700D02*
X1569Y1647D01*
D02*
X1365Y796D02*
X1284Y878D01*
D02*
X1490Y794D02*
X1365Y796D01*
D02*
X1570Y872D02*
X1490Y794D01*
D02*
X1284Y1476D02*
X485Y2300D01*
D02*
X1284Y878D02*
X1284Y1476D01*
D02*
X283Y2550D02*
X1263Y2542D01*
D02*
X2106Y599D02*
X1822Y878D01*
D02*
X1822Y2408D02*
X1689Y2541D01*
D02*
X1822Y878D02*
X1822Y2408D01*
D02*
X3037Y2033D02*
X3037Y2390D01*
D02*
X3037Y2390D02*
X2975Y2456D01*
D02*
X3274Y1730D02*
X3273Y1795D01*
D02*
X3273Y1795D02*
X3037Y2033D01*
D02*
X2975Y2456D02*
X2921Y2456D01*
D02*
X2426Y2588D02*
X2585Y2477D01*
D02*
X2585Y2477D02*
X2589Y1546D01*
D02*
X3107Y2066D02*
X3108Y2490D01*
D02*
X3108Y2490D02*
X3044Y2555D01*
D02*
X3375Y1797D02*
X3107Y2066D01*
D02*
X3374Y1730D02*
X3375Y1797D01*
D02*
X3044Y2555D02*
X2921Y2556D01*
D02*
X3907Y1951D02*
X3969Y1951D01*
D02*
X2902Y2837D02*
X2902Y2775D01*
D02*
X2902Y2875D02*
X2902Y2937D01*
D02*
X2612Y2993D02*
X2883Y2958D01*
D02*
X3468Y1524D02*
X3572Y1629D01*
D02*
X3572Y1629D02*
X3572Y1842D01*
D02*
X3360Y2052D02*
X3360Y2397D01*
D02*
X3572Y1842D02*
X3360Y2052D01*
D02*
X3360Y2397D02*
X3006Y2755D01*
D02*
X3006Y2755D02*
X2921Y2756D01*
D02*
X3160Y1723D02*
X2916Y1943D01*
D02*
X3970Y1460D02*
X3572Y1629D01*
D02*
X1439Y2713D02*
X1664Y2941D01*
D02*
X3827Y2979D02*
X3765Y3039D01*
D02*
X3765Y3039D02*
X3562Y3041D01*
D02*
X3879Y2979D02*
X3827Y2979D01*
D02*
X3362Y2843D02*
X3360Y2397D01*
D02*
X3562Y3041D02*
X3362Y2843D01*
D02*
X3979Y2979D02*
X3917Y2979D01*
D02*
X2702Y540D02*
X2747Y498D01*
D02*
X3358Y446D02*
X3359Y172D01*
D02*
X3308Y494D02*
X3358Y446D01*
D02*
X2747Y498D02*
X3308Y494D01*
D02*
X3359Y172D02*
X3411Y120D01*
D02*
X3411Y120D02*
X3729Y121D01*
D02*
X3787Y185D02*
X3788Y1012D01*
D02*
X3729Y121D02*
X3787Y185D01*
D02*
X3176Y1617D02*
X3175Y1692D01*
D02*
X3788Y1012D02*
X3176Y1617D01*
D02*
X2703Y464D02*
X2747Y498D01*
D02*
X4493Y1664D02*
X4555Y1667D01*
D02*
X4603Y1805D02*
X4461Y1944D01*
D02*
X4603Y1723D02*
X4603Y1805D01*
D02*
X4555Y1667D02*
X4603Y1723D01*
D02*
X4300Y1467D02*
X4461Y1649D01*
D02*
X4349Y2958D02*
X4347Y1977D01*
D02*
X4430Y2977D02*
X4368Y2977D01*
D02*
X3760Y2956D02*
X3863Y2867D01*
D02*
X3707Y2957D02*
X3760Y2956D01*
D02*
X3863Y2867D02*
X4239Y2863D01*
D02*
X4239Y2863D02*
X4336Y2963D01*
D02*
X2423Y2713D02*
X2580Y2881D01*
D02*
X2394Y2109D02*
X2310Y2163D01*
D02*
X2310Y2163D02*
X2308Y2631D01*
D02*
X2308Y2631D02*
X2394Y2688D01*
D02*
X1160Y393D02*
X1159Y694D01*
D02*
X586Y701D02*
X677Y605D01*
D02*
X677Y605D02*
X1124Y605D01*
D02*
X1158Y634D02*
X1159Y694D01*
D02*
X1124Y605D02*
X1158Y634D01*
D02*
X1222Y249D02*
X1160Y306D01*
D02*
X2166Y248D02*
X1222Y249D01*
D02*
X1160Y306D02*
X1160Y355D01*
D02*
X2318Y479D02*
X2188Y344D01*
D02*
X2188Y344D02*
X2186Y267D01*
D02*
X2320Y566D02*
X2318Y479D01*
D02*
X2444Y351D02*
X2318Y480D01*
D02*
X2669Y352D02*
X2444Y351D01*
D02*
X2318Y480D02*
X2320Y566D01*
D02*
X278Y2664D02*
X374Y2756D01*
D02*
X374Y2756D02*
X652Y2756D01*
D02*
X278Y2851D02*
X374Y2756D01*
D02*
X3176Y1617D02*
X3270Y1524D01*
D02*
X3270Y1524D02*
X3468Y1524D01*
G04 End of Copper0*
M02*